<?xml version="1.0" encoding="UTF-8" standalone="no"?>
<!-- Created with Inkscape (http://www.inkscape.org/) -->

<svg
   width="210mm"
   height="297mm"
   viewBox="0 0 210 297"
   version="1.1"
   id="svg1"
   xml:space="preserve"
   inkscape:version="1.3.2 (091e20e, 2023-11-25, custom)"
   sodipodi:docname="Cassette.svg"
   xmlns:inkscape="http://www.inkscape.org/namespaces/inkscape"
   xmlns:sodipodi="http://sodipodi.sourceforge.net/DTD/sodipodi-0.dtd"
   xmlns:xlink="http://www.w3.org/1999/xlink"
   xmlns="http://www.w3.org/2000/svg"
   xmlns:svg="http://www.w3.org/2000/svg"><sodipodi:namedview
     id="namedview1"
     pagecolor="#505050"
     bordercolor="#ffffff"
     borderopacity="1"
     inkscape:showpageshadow="0"
     inkscape:pageopacity="0"
     inkscape:pagecheckerboard="1"
     inkscape:deskcolor="#505050"
     inkscape:document-units="mm"
     inkscape:zoom="1.2825338"
     inkscape:cx="396.48078"
     inkscape:cy="534.48884"
     inkscape:window-width="1366"
     inkscape:window-height="705"
     inkscape:window-x="-8"
     inkscape:window-y="-8"
     inkscape:window-maximized="1"
     inkscape:current-layer="layer1" /><defs
     id="defs1"><linearGradient
       id="linearGradient41"
       inkscape:collect="always"><stop
         style="stop-color:#12121a;stop-opacity:1;"
         offset="0"
         id="stop41" /><stop
         style="stop-color:#3d3d47;stop-opacity:1;"
         offset="1"
         id="stop42" /></linearGradient><linearGradient
       id="linearGradient37"
       inkscape:collect="always"><stop
         style="stop-color:#28282d;stop-opacity:1;"
         offset="0"
         id="stop37" /><stop
         style="stop-color:#28282d;stop-opacity:1;"
         offset="1"
         id="stop38" /></linearGradient><linearGradient
       id="linearGradient35"
       inkscape:collect="always"><stop
         style="stop-color:#3d3d47;stop-opacity:1;"
         offset="0"
         id="stop35" /><stop
         style="stop-color:#1a1a1c;stop-opacity:1;"
         offset="1"
         id="stop36" /></linearGradient><linearGradient
       id="swatch33"><stop
         style="stop-color:#2b2b2b;stop-opacity:1;"
         offset="0"
         id="stop34" /></linearGradient><clipPath
       clipPathUnits="userSpaceOnUse"
       id="clipPath33"><rect
         style="fill:#000000;stroke:none;stroke-width:0.999995;stroke-linecap:butt;stroke-linejoin:bevel;paint-order:stroke markers fill;stop-color:#000000"
         id="rect33"
         width="46.19186"
         height="80.006783"
         x="74.999985"
         y="399.99661" /></clipPath><linearGradient
       id="linearGradient18"
       inkscape:collect="always"><stop
         style="stop-color:#1a1a1a;stop-opacity:1;"
         offset="0"
         id="stop18" /><stop
         style="stop-color:#535353;stop-opacity:1;"
         offset="1"
         id="stop19" /></linearGradient><linearGradient
       id="linearGradient13"
       inkscape:collect="always"><stop
         style="stop-color:#1a1a1a;stop-opacity:1;"
         offset="0"
         id="stop13" /><stop
         style="stop-color:#474747;stop-opacity:1;"
         offset="1"
         id="stop14" /></linearGradient><linearGradient
       inkscape:collect="always"
       xlink:href="#linearGradient13"
       id="linearGradient14"
       x1="89.653404"
       y1="145.61974"
       x2="100.93219"
       y2="145.61974"
       gradientUnits="userSpaceOnUse" /><linearGradient
       inkscape:collect="always"
       xlink:href="#linearGradient18"
       id="linearGradient19"
       x1="108.25167"
       y1="144.45274"
       x2="119.53114"
       y2="144.45274"
       gradientUnits="userSpaceOnUse" /><linearGradient
       inkscape:collect="always"
       xlink:href="#linearGradient35"
       id="linearGradient36"
       x1="47.165764"
       y1="148.84883"
       x2="163.26224"
       y2="148.84883"
       gradientUnits="userSpaceOnUse" /><linearGradient
       inkscape:collect="always"
       xlink:href="#linearGradient37"
       id="linearGradient38"
       x1="69.390765"
       y1="144.26045"
       x2="139.74035"
       y2="144.26045"
       gradientUnits="userSpaceOnUse" /><linearGradient
       inkscape:collect="always"
       xlink:href="#linearGradient41"
       id="linearGradient42"
       x1="87.739075"
       y1="162.72623"
       x2="81.974937"
       y2="208.82248"
       gradientUnits="userSpaceOnUse"
       gradientTransform="matrix(0.99976498,0,0,1.0761116,0.02460552,-12.66635)" /></defs><g
     inkscape:label="body"
     inkscape:groupmode="layer"
     id="layer1"
     style="display:inline"><rect
       style="display:inline;opacity:1;fill:#0a0a0c;fill-opacity:1;stroke:none;stroke-width:0.499999;stroke-linecap:round;stroke-linejoin:round;stroke-dasharray:none;stroke-opacity:1"
       id="rect58"
       width="33.478142"
       height="17.359035"
       x="87.524559"
       y="136.02774"
       inkscape:label="tape_back" /><path
       style="display:inline;opacity:1;fill:url(#linearGradient19);stroke:#5b5b5b;stroke-width:0.574731;stroke-linecap:round;stroke-linejoin:round;stroke-dasharray:none;stroke-opacity:1"
       d="m 110.26844,152.94978 c 0,0 -3.88793,-8.62449 0,-16.99407 h 8.97533 v 16.99407 z"
       id="path7"
       inkscape:label="right_tape" /><path
       style="display:inline;opacity:1;fill:url(#linearGradient14);stroke:#5b5b5b;stroke-width:0.548079;stroke-linecap:round;stroke-linejoin:round;stroke-dasharray:none;stroke-opacity:1"
       d="m 98.925144,137.91169 c 0,0 3.897616,7.82367 0,15.41609 h -8.997698 v -15.41609 z"
       id="path6"
       inkscape:label="left_tape" /><path
       id="path1"
       style="display:inline;opacity:1;fill:url(#linearGradient36);fill-opacity:1;stroke:#333333;stroke-width:0.565;stroke-dasharray:none;stroke-opacity:1"
       inkscape:label="main_frame"
       d="m 156.07109,112.00763 c -0.48275,-0.0184 -1,-0.0155 -1.55442,0.0119 0,0 -0.027,0.004 -97.578543,0 -7.202645,-0.0365 -8.526868,0.83668 -9.343099,3.74654 -0.132842,0.74625 -0.146761,3.2675 -0.146761,3.2675 l 0.206189,60.6516 c 0,0 -0.644332,6.54989 7.220747,5.98258 l 101.704387,-0.20619 c 0,0 6.92185,0.4461 6.36964,-6.80786 l -0.18035,-61.27067 c 0,0 0.54352,-5.09916 -6.69779,-5.37539 z m -101.968449,6.1681 H 155.58792 v 45.6582 H 54.102641 Z" /><rect
       style="opacity:1;fill:#9e9e9e;fill-opacity:1;stroke:#727272;stroke-width:0.565;stroke-linecap:butt;stroke-linejoin:round;stroke-dasharray:none;stroke-opacity:1;paint-order:normal"
       id="rect2"
       width="95.255898"
       height="10.867629"
       x="57.036835"
       y="119.6169"
       inkscape:label="tag_frame" /><path
       id="path3"
       style="opacity:1;fill:url(#linearGradient38);fill-opacity:1;stroke:#4d4d4d;stroke-width:0.564999;stroke-linecap:butt;stroke-linejoin:round;stroke-dasharray:none;stroke-opacity:1;paint-order:normal"
       inkscape:label="reel_frame"
       d="m 72.463277,134.27708 c -2.589266,0 -2.735233,2.77192 -2.735233,2.77192 l -0.05478,14.33194 c 0.415879,2.85778 3.099552,2.86288 3.099552,2.86288 l 63.899464,-0.0367 c 2.93973,-0.90254 2.78484,-3.06854 2.78484,-3.06854 l -0.0775,-14.26011 c -0.72204,-2.60453 -3.1719,-2.55334 -3.1719,-2.55334 0,0 -61.446918,-0.048 -63.744436,-0.048 z m 18.796786,3.60236 h 26.487787 v 14.57379 H 91.260063 Z" /><path
       id="path38"
       style="display:inline;opacity:1;fill:url(#linearGradient42);fill-opacity:1;stroke:#1d1d1d;stroke-width:0.518617;stroke-linecap:round;stroke-linejoin:round;stroke-dasharray:none;stroke-opacity:1"
       inkscape:label="lower_frame"
       d="m 101.71129,166.55508 c -9.787804,0.0549 -20.628876,0.53421 -31.458902,1.81177 l -2.802787,10.08034 -2.353309,8.46379 h 79.199288 l -4.6162,-18.54413 c 0,0 -16.43494,-1.93254 -37.96809,-1.81177 z m 18.81872,10.6993 a 2.5950998,2.7932735 0 0 1 2.5951,2.79326 2.5950998,2.7932735 0 0 1 -2.5951,2.79327 2.5950998,2.7932735 0 0 1 -2.5951,-2.79327 2.5950998,2.7932735 0 0 1 2.5951,-2.79326 z m -32.23077,0.31419 a 2.5950998,2.7932735 0 0 1 2.595097,2.79326 2.5950998,2.7932735 0 0 1 -2.595097,2.79328 2.5950998,2.7932735 0 0 1 -2.595097,-2.79328 2.5950998,2.7932735 0 0 1 2.595097,-2.79326 z m 43.56952,2.19769 a 2.5950998,2.7932735 0 0 1 2.5951,2.79327 2.5950998,2.7932735 0 0 1 -2.5951,2.79327 2.5950998,2.7932735 0 0 1 -2.59509,-2.79327 2.5950998,2.7932735 0 0 1 2.59509,-2.79327 z m -56.047478,0.13346 a 2.5950998,2.7932735 0 0 1 2.595097,2.79327 2.5950998,2.7932735 0 0 1 -2.595097,2.79328 2.5950998,2.7932735 0 0 1 -2.595097,-2.79328 2.5950998,2.7932735 0 0 1 2.595097,-2.79327 z" /></g><g
     inkscape:groupmode="layer"
     id="layer3"
     inkscape:label="reels"><g
       id="g12"
       style="fill:#cacab9;fill-opacity:1"
       inkscape:label="L"><g
         inkscape:groupmode="layer"
         id="layer4"
         inkscape:label="L"
         style="fill:#cacab9;fill-opacity:1"><path
           id="circle5"
           style="opacity:1;fill:#cacab9;stroke:none;stroke-width:0.564999;stroke-linecap:butt;stroke-linejoin:round;stroke-dasharray:none;stroke-opacity:1;paint-order:normal;fill-opacity:1"
           inkscape:label="L"
           d="M 79.793062 136.53844 A 8.3148327 8.3148327 0 0 0 71.478324 144.85317 A 8.3148327 8.3148327 0 0 0 79.793062 153.16791 A 8.3148327 8.3148327 0 0 0 88.1078 144.85317 A 8.3148327 8.3148327 0 0 0 79.793062 136.53844 z M 79.793062 137.97917 A 6.5459938 6.8742108 0 0 1 86.339433 144.85317 A 6.5459938 6.8742108 0 0 1 79.793062 151.72717 A 6.5459938 6.8742108 0 0 1 73.247209 144.85317 A 6.5459938 6.8742108 0 0 1 79.793062 137.97917 z " /><g
           inkscape:groupmode="layer"
           id="layer6"
           inkscape:label="inner"
           style="fill:#cacab9;fill-opacity:1"><g
             id="g11"
             style="fill:#cacab9;stroke:none;fill-opacity:1"><rect
               style="opacity:1;fill:#cacab9;stroke:none;stroke-width:0.564999;stroke-linecap:butt;stroke-linejoin:round;stroke-dasharray:none;stroke-opacity:1;paint-order:normal;fill-opacity:1"
               id="rect8"
               width="2.5527995"
               height="1.0028856"
               x="-41.265045"
               y="158.34444"
               transform="rotate(-45)" /><rect
               style="opacity:1;fill:#cacab9;stroke:none;stroke-width:0.564999;stroke-linecap:butt;stroke-linejoin:round;stroke-dasharray:none;stroke-opacity:1;paint-order:normal;fill-opacity:1"
               id="rect9"
               width="2.5527995"
               height="1.0028856"
               x="-53.500248"
               y="158.94617"
               transform="rotate(-45)" /><rect
               style="opacity:1;fill:#cacab9;stroke:none;stroke-width:0.564999;stroke-linecap:butt;stroke-linejoin:round;stroke-dasharray:none;stroke-opacity:1;paint-order:normal;fill-opacity:1"
               id="rect10"
               width="2.5527995"
               height="1.0028856"
               x="151.71677"
               y="44.975224"
               transform="rotate(45)" /><rect
               style="opacity:1;fill:#cacab9;stroke:none;stroke-width:0.564999;stroke-linecap:butt;stroke-linejoin:round;stroke-dasharray:none;stroke-opacity:1;paint-order:normal;fill-opacity:1"
               id="rect11"
               width="2.5527995"
               height="1.0028856"
               x="163.93373"
               y="46.324562"
               transform="rotate(45)" /><rect
               style="opacity:1;fill:#cacab9;stroke:none;stroke-width:0.564999;stroke-linecap:butt;stroke-linejoin:round;stroke-dasharray:none;stroke-opacity:1;paint-order:normal;fill-opacity:1"
               id="rect6"
               width="2.5527995"
               height="1.0028856"
               x="72.608917"
               y="144.63434" /><rect
               style="opacity:1;fill:#cacab9;stroke:none;stroke-width:0.564999;stroke-linecap:butt;stroke-linejoin:round;stroke-dasharray:none;stroke-opacity:1;paint-order:normal;fill-opacity:1"
               id="rect7"
               width="2.5527995"
               height="1.0028856"
               x="84.779762"
               y="144.63434" /></g></g></g></g><g
       id="g20"
       style="fill:#cacab9;fill-opacity:1"
       inkscape:label="R"
       transform="translate(48.992805)"><g
         inkscape:groupmode="layer"
         id="g19"
         inkscape:label="L"
         style="fill:#cacab9;fill-opacity:1"><path
           id="path12"
           style="opacity:1;fill:#cacab9;fill-opacity:1;stroke:none;stroke-width:0.564999;stroke-linecap:butt;stroke-linejoin:round;stroke-dasharray:none;stroke-opacity:1;paint-order:normal"
           inkscape:label="L"
           d="m 79.793062,136.53844 a 8.3148327,8.3148327 0 0 0 -8.314738,8.31473 8.3148327,8.3148327 0 0 0 8.314738,8.31474 8.3148327,8.3148327 0 0 0 8.314738,-8.31474 8.3148327,8.3148327 0 0 0 -8.314738,-8.31473 z m 0,1.44073 a 6.5459938,6.8742108 0 0 1 6.546371,6.874 6.5459938,6.8742108 0 0 1 -6.546371,6.874 6.5459938,6.8742108 0 0 1 -6.545853,-6.874 6.5459938,6.8742108 0 0 1 6.545853,-6.874 z" /><g
           inkscape:groupmode="layer"
           id="g18"
           inkscape:label="inner"
           style="fill:#cacab9;fill-opacity:1"><g
             id="g17"
             style="fill:#cacab9;fill-opacity:1;stroke:none"><rect
               style="opacity:1;fill:#cacab9;fill-opacity:1;stroke:none;stroke-width:0.564999;stroke-linecap:butt;stroke-linejoin:round;stroke-dasharray:none;stroke-opacity:1;paint-order:normal"
               id="rect12"
               width="2.5527995"
               height="1.0028856"
               x="-41.265045"
               y="158.34444"
               transform="rotate(-45)" /><rect
               style="opacity:1;fill:#cacab9;fill-opacity:1;stroke:none;stroke-width:0.564999;stroke-linecap:butt;stroke-linejoin:round;stroke-dasharray:none;stroke-opacity:1;paint-order:normal"
               id="rect13"
               width="2.5527995"
               height="1.0028856"
               x="-53.500248"
               y="158.94617"
               transform="rotate(-45)" /><rect
               style="opacity:1;fill:#cacab9;fill-opacity:1;stroke:none;stroke-width:0.564999;stroke-linecap:butt;stroke-linejoin:round;stroke-dasharray:none;stroke-opacity:1;paint-order:normal"
               id="rect14"
               width="2.5527995"
               height="1.0028856"
               x="151.71677"
               y="44.975224"
               transform="rotate(45)" /><rect
               style="opacity:1;fill:#cacab9;fill-opacity:1;stroke:none;stroke-width:0.564999;stroke-linecap:butt;stroke-linejoin:round;stroke-dasharray:none;stroke-opacity:1;paint-order:normal"
               id="rect15"
               width="2.5527995"
               height="1.0028856"
               x="163.93373"
               y="46.324562"
               transform="rotate(45)" /><rect
               style="opacity:1;fill:#cacab9;fill-opacity:1;stroke:none;stroke-width:0.564999;stroke-linecap:butt;stroke-linejoin:round;stroke-dasharray:none;stroke-opacity:1;paint-order:normal"
               id="rect16"
               width="2.5527995"
               height="1.0028856"
               x="72.608917"
               y="144.63434" /><rect
               style="opacity:1;fill:#cacab9;fill-opacity:1;stroke:none;stroke-width:0.564999;stroke-linecap:butt;stroke-linejoin:round;stroke-dasharray:none;stroke-opacity:1;paint-order:normal"
               id="rect17"
               width="2.5527995"
               height="1.0028856"
               x="84.779762"
               y="144.63434" /></g></g></g></g></g></svg>
